# xmcd
#
# Track frame offsets: 
#        150
#        15112
#        29837
#        42915
#        56705
#        71107
#        85020
#        99165
#        113512
#        128035
#        142275
#        156517
#        170032
#        184287
#        196912
#        211135
#        223952
#        238085
#        252240
#        265585
#        278902
#        293007
#        306370
#        318942
#
# Disc length: 4430 seconds
#
# Revision: 0
# Processed by: cddbd v1.5.2PL0 Copyright (c) Steve Scherf et al.
# Submitted via: ExactAudioCopy v0.99pb4
#
DISCID=68114c18
DTITLE=Mamie Smith - Volume 2 - c 1921 - 1922
DYEAR=1995
DGENRE=Blues
TTITLE0=Sweet man o` mine
TTITLE1=Mama whip! Mama spank!
TTITLE2=I`m free, single, disengaged, looking for someone to love
TTITLE3=Weepin`
TTITLE4=A wearin` away the blues
TTITLE5=Down home blues
TTITLE6=Get hot
TTITLE7=Oh, joe (please don`t go)
TTITLE8=A little kind treatment
TTITLE9=Arkansas blues (a down home chant)
TTITLE10=The wang, wang blues
TTITLE11=Stop! Rest a while
TTITLE12=Sweet cookie
TTITLE13=Let`s agree to disagree
TTITLE14=Rambling blues
TTITLE15=Cubanita
TTITLE16=The Decatur Street blues
TTITLE17=Carolina blues
TTITLE18=Doo-dah blues
TTITLE19=There`s only one man (that satisfies me)
TTITLE20=Wabash blues
TTITLE21=Mean daddy blues
TTITLE22=Dem knock-out-blues
TTITLE23=Lonesome mama blues
EXTD=
EXTT0=
EXTT1=
EXTT2=
EXTT3=
EXTT4=
EXTT5=
EXTT6=
EXTT7=
EXTT8=
EXTT9=
EXTT10=
EXTT11=
EXTT12=
EXTT13=
EXTT14=
EXTT15=
EXTT16=
EXTT17=
EXTT18=
EXTT19=
EXTT20=
EXTT21=
EXTT22=
EXTT23=
PLAYORDER=
